# xmcd
#
# Track frame offsets:
#	150
#	21220
#	38817
#
# Disc length: 912 seconds
#
# Revision: 0
# Processed by: cddbd v1.5.1PL0 Copyright (c) Steve Scherf et al.
# Submitted via: EasyCDDAExtractor 8.0.2.1
#
DISCID=1b038e03
DTITLE=Neil Murray - Holy Road (Single)
DYEAR=1993
DGENRE=Country
TTITLE0=Holy Road (Spirit Mix)
TTITLE1=One True Place
TTITLE2=Holy Road (Original Version)
EXTD=
EXTT0=Feat Niara Scarlett\n
EXTT1=
EXTT2=Feat Fontanella Bass\nMr P Remix\n
PLAYORDER=
